<svg width="14" height="12" viewBox="0 0 14 12" fill="none" xmlns="http://www.w3.org/2000/svg">
<path d="M11.3334 3.33334C11.687 3.33334 12.0262 3.19286 12.2762 2.94281C12.5263 2.69277 12.6667 2.35363 12.6667 2.00001C12.6667 1.64638 12.5263 1.30724 12.2762 1.0572C12.0262 0.807147 11.687 0.666672 11.3334 0.666672H2.00008C1.64646 0.666672 1.30732 0.807147 1.05727 1.0572C0.807224 1.30724 0.666748 1.64638 0.666748 2.00001C0.666748 2.35363 0.807224 2.69277 1.05727 2.94281C1.30732 3.19286 1.64646 3.33334 2.00008 3.33334M11.3334 3.33334H2.00008M11.3334 3.33334V10C11.3334 10.3536 11.1929 10.6928 10.9429 10.9428C10.6928 11.1929 10.3537 11.3333 10.0001 11.3333H3.33341C2.97979 11.3333 2.64065 11.1929 2.39061 10.9428C2.14056 10.6928 2.00008 10.3536 2.00008 10V3.33334M5.33341 6.00001H8.00008" stroke="#111625" stroke-width="1.33333" stroke-linecap="round" stroke-linejoin="round"/>
</svg>
