<svg width="14" height="14" viewBox="0 0 14 14" fill="none" xmlns="http://www.w3.org/2000/svg">
<path d="M2.77873 11.2327C2.94373 10.6835 3.28137 10.2021 3.74156 9.85999C4.20174 9.51785 4.75996 9.33317 5.33339 9.33334H8.00006C8.57423 9.33314 9.13313 9.51827 9.59365 9.86119C10.0542 10.2041 10.3917 10.6865 10.5561 11.2367M0.666748 6.66667C0.666748 7.4546 0.821943 8.23482 1.12347 8.96277C1.425 9.69073 1.86696 10.3522 2.42411 10.9093C2.98126 11.4665 3.64269 11.9084 4.37065 12.2099C5.0986 12.5115 5.87882 12.6667 6.66675 12.6667C7.45468 12.6667 8.2349 12.5115 8.96285 12.2099C9.6908 11.9084 10.3522 11.4665 10.9094 10.9093C11.4665 10.3522 11.9085 9.69073 12.21 8.96277C12.5116 8.23482 12.6667 7.4546 12.6667 6.66667C12.6667 5.87874 12.5116 5.09852 12.21 4.37057C11.9085 3.64262 11.4665 2.98118 10.9094 2.42403C10.3522 1.86688 9.6908 1.42492 8.96285 1.12339C8.2349 0.821866 7.45468 0.666672 6.66675 0.666672C5.87882 0.666672 5.0986 0.821866 4.37065 1.12339C3.64269 1.42492 2.98126 1.86688 2.42411 2.42403C1.86696 2.98118 1.425 3.64262 1.12347 4.37057C0.821943 5.09852 0.666748 5.87874 0.666748 6.66667ZM4.66675 5.33334C4.66675 5.86377 4.87746 6.37248 5.25253 6.74755C5.62761 7.12263 6.13632 7.33334 6.66675 7.33334C7.19718 7.33334 7.70589 7.12263 8.08096 6.74755C8.45603 6.37248 8.66675 5.86377 8.66675 5.33334C8.66675 4.80291 8.45603 4.2942 8.08096 3.91913C7.70589 3.54405 7.19718 3.33334 6.66675 3.33334C6.13632 3.33334 5.62761 3.54405 5.25253 3.91913C4.87746 4.2942 4.66675 4.80291 4.66675 5.33334Z" stroke="#111625" stroke-width="1.33333" stroke-linecap="round" stroke-linejoin="round"/>
</svg>
