<svg width="44" height="44" viewBox="0 0 44 44" fill="none" xmlns="http://www.w3.org/2000/svg">
<rect width="44" height="44" rx="22" fill="#1E9A80"/>
<g clip-path="url(#clip0_0_2255)">
<path fill-rule="evenodd" clip-rule="evenodd" d="M12.1001 19.25V28.05H14.8501C15.139 28.05 15.4251 28.1069 15.692 28.2175C15.9589 28.328 16.2015 28.4901 16.4057 28.6944C16.61 28.8987 16.7721 29.1412 16.8827 29.4081C16.9932 29.675 17.0501 29.9611 17.0501 30.25V33H23.6501L31.9001 24.75V15.95H29.1501C28.8612 15.95 28.5751 15.8931 28.3082 15.7825C28.0413 15.672 27.7987 15.5099 27.5945 15.3056C27.3902 15.1014 27.2281 14.8588 27.1175 14.5919C27.007 14.325 26.9501 14.0389 26.9501 13.75V11H20.3501L12.1001 19.25ZM21.4501 27.5H17.6001V21.45L22.5501 16.5H26.4001V22.55L21.4501 27.5Z" fill="white"/>
</g>
<defs>
<clipPath id="clip0_0_2255">
<rect width="19.8" height="22" fill="white" transform="translate(12.0999 11)"/>
</clipPath>
</defs>
</svg>
