<svg width="12" height="14" viewBox="0 0 12 14" fill="none" xmlns="http://www.w3.org/2000/svg">
<path d="M0.666748 3.33333H11.3334M4.66675 6V10M7.33341 6V10M1.33341 3.33333L2.00008 11.3333C2.00008 11.687 2.14056 12.0261 2.39061 12.2761C2.64065 12.5262 2.97979 12.6667 3.33341 12.6667H8.66675C9.02037 12.6667 9.35951 12.5262 9.60956 12.2761C9.85961 12.0261 10.0001 11.687 10.0001 11.3333L10.6667 3.33333M4.00008 3.33333V1.33333C4.00008 1.15652 4.07032 0.986954 4.19534 0.86193C4.32037 0.736906 4.48994 0.666668 4.66675 0.666668H7.33341C7.51023 0.666668 7.6798 0.736906 7.80482 0.86193C7.92984 0.986954 8.00008 1.15652 8.00008 1.33333V3.33333" stroke="#DF1C41" stroke-width="1.33333" stroke-linecap="round" stroke-linejoin="round"/>
</svg>
