<svg width="12" height="13" viewBox="0 0 12 13" fill="none" xmlns="http://www.w3.org/2000/svg">
<path d="M7.279 3.12487L3.48734 6.91653C3.25527 7.1486 3.1249 7.46335 3.1249 7.79153C3.1249 8.11972 3.25527 8.43447 3.48734 8.66653C3.7194 8.8986 4.03415 9.02897 4.36234 9.02897C4.69052 9.02897 5.00527 8.8986 5.23734 8.66653L9.029 4.87487C9.49313 4.41074 9.75388 3.78125 9.75388 3.12487C9.75388 2.46849 9.49313 1.839 9.029 1.37487C8.56487 0.910739 7.93538 0.649994 7.279 0.649994C6.62262 0.649994 5.99313 0.910739 5.529 1.37487L1.73734 5.16653C1.04114 5.86273 0.650024 6.80697 0.650024 7.79153C0.650024 8.7761 1.04114 9.72034 1.73734 10.4165C2.43353 11.1127 3.37777 11.5038 4.36234 11.5038C5.3469 11.5038 6.29114 11.1127 6.98734 10.4165L10.779 6.62487" stroke="#262626" stroke-width="1.3" stroke-linecap="round" stroke-linejoin="round"/>
</svg>
