<svg width="16" height="16" viewBox="0 0 16 16" fill="none" xmlns="http://www.w3.org/2000/svg">
<g clip-path="url(#clip0_0_2038)">
<path d="M2.66683 7.33333H13.3335M2.66683 7.33333C1.93045 7.33333 1.3335 6.73637 1.3335 6V5.33333C1.3335 4.59695 1.93045 3.99999 2.66683 3.99999H13.3335C14.0699 3.99999 14.6668 4.59695 14.6668 5.33333V6C14.6668 6.73637 14.0699 7.33333 13.3335 7.33333M2.66683 7.33333L2.66683 13.3333C2.66683 14.0697 3.26378 14.6667 4.00016 14.6667H12.0002C12.7365 14.6667 13.3335 14.0697 13.3335 13.3333V7.33333M8.00016 3.99999H10.6668C11.4032 3.99999 12.0002 3.40304 12.0002 2.66666C12.0002 1.93028 11.4032 1.33333 10.6668 1.33333C9.19407 1.33333 8.00016 2.52724 8.00016 3.99999ZM8.00016 3.99999H5.3335C4.59712 3.99999 4.00016 3.40304 4.00016 2.66666C4.00016 1.93028 4.59712 1.33333 5.3335 1.33333C6.80626 1.33333 8.00016 2.52724 8.00016 3.99999ZM8.00016 3.99999V14.6667" stroke="#28303F" stroke-linecap="round"/>
</g>
<defs>
<clipPath id="clip0_0_2038">
<rect width="16" height="16" fill="white"/>
</clipPath>
</defs>
</svg>
