<svg width="12" height="12" viewBox="0 0 12 12" fill="none" xmlns="http://www.w3.org/2000/svg">
<path d="M4.15002 4.14999H4.15586M7.65002 4.14999H7.65586M0.650024 5.89999C0.650024 6.58943 0.78582 7.27212 1.04966 7.90908C1.31349 8.54604 1.70021 9.1248 2.18771 9.6123C2.67522 10.0998 3.25398 10.4865 3.89094 10.7504C4.5279 11.0142 5.21058 11.15 5.90002 11.15C6.58946 11.15 7.27215 11.0142 7.90911 10.7504C8.54607 10.4865 9.12483 10.0998 9.61234 9.6123C10.0998 9.1248 10.4866 8.54604 10.7504 7.90908C11.0142 7.27212 11.15 6.58943 11.15 5.89999C11.15 5.21055 11.0142 4.52787 10.7504 3.89091C10.4866 3.25395 10.0998 2.67519 9.61234 2.18768C9.12483 1.70018 8.54607 1.31346 7.90911 1.04963C7.27215 0.785789 6.58946 0.649994 5.90002 0.649994C5.21058 0.649994 4.5279 0.785789 3.89094 1.04963C3.25398 1.31346 2.67522 1.70018 2.18771 2.18768C1.70021 2.67519 1.31349 3.25395 1.04966 3.89091C0.78582 4.52787 0.650024 5.21055 0.650024 5.89999ZM3.56669 6.48333C3.56669 7.10217 3.81252 7.69566 4.25011 8.13324C4.68769 8.57083 5.28119 8.81666 5.90002 8.81666C6.51886 8.81666 7.11236 8.57083 7.54994 8.13324C7.98753 7.69566 8.23336 7.10217 8.23336 6.48333H3.56669Z" stroke="#262626" stroke-width="1.3" stroke-linecap="round" stroke-linejoin="round"/>
</svg>
