<svg width="14" height="14" viewBox="0 0 14 14" fill="none" xmlns="http://www.w3.org/2000/svg">
<path d="M2.91663 5.83332C2.91663 6.91629 3.34683 7.9549 4.11261 8.72068C4.87838 9.48645 5.91699 9.91666 6.99996 9.91666M6.99996 9.91666C8.08293 9.91666 9.12154 9.48645 9.88731 8.72068C10.6531 7.9549 11.0833 6.91629 11.0833 5.83332M6.99996 9.91666V12.25M4.66663 12.25H9.33329M5.24996 2.91666C5.24996 2.45253 5.43433 2.00741 5.76252 1.67922C6.09071 1.35103 6.53583 1.16666 6.99996 1.16666C7.46409 1.16666 7.90921 1.35103 8.2374 1.67922C8.56559 2.00741 8.74996 2.45253 8.74996 2.91666V5.83332C8.74996 6.29745 8.56559 6.74257 8.2374 7.07076C7.90921 7.39895 7.46409 7.58332 6.99996 7.58332C6.53583 7.58332 6.09071 7.39895 5.76252 7.07076C5.43433 6.74257 5.24996 6.29745 5.24996 5.83332V2.91666Z" stroke="#262626" stroke-width="1.3" stroke-linecap="round" stroke-linejoin="round"/>
</svg>
