<svg width="13" height="12" viewBox="0 0 13 12" fill="none" xmlns="http://www.w3.org/2000/svg">
<path d="M9.33341 4.62256L12.0001 7.28923M12.0001 4.62256L9.33341 7.28923M2.66675 7.95588H1.33341C1.1566 7.95588 0.987034 7.88564 0.86201 7.76062C0.736986 7.63559 0.666748 7.46602 0.666748 7.28921V4.62255C0.666748 4.44573 0.736986 4.27617 0.86201 4.15114C0.987034 4.02612 1.1566 3.95588 1.33341 3.95588H2.66675L5.00008 0.955879C5.05835 0.842699 5.15518 0.754094 5.27307 0.706074C5.39097 0.658053 5.52215 0.653785 5.64292 0.694041C5.76368 0.734296 5.86607 0.81642 5.93157 0.925572C5.99707 1.03472 6.02137 1.16371 6.00008 1.28921V10.6225C6.02137 10.7481 5.99707 10.877 5.93157 10.9862C5.86607 11.0953 5.76368 11.1775 5.64292 11.2177C5.52215 11.258 5.39097 11.2537 5.27307 11.2057C5.15518 11.1577 5.05835 11.0691 5.00008 10.9559L2.66675 7.95588Z" stroke="#111625" stroke-width="1.33333" stroke-linecap="round" stroke-linejoin="round"/>
</svg>
