<svg width="13" height="13" viewBox="0 0 13 13" fill="none" xmlns="http://www.w3.org/2000/svg">
<path d="M0.5 12.5H12.5M7.68961 2.04114C7.68961 2.04114 7.68961 3.13089 8.77936 4.22064C9.86911 5.31039 10.9589 5.31039 10.9589 5.31039M3.37975 10.492L5.66823 10.1651C5.99833 10.118 6.30424 9.96501 6.54003 9.72922L12.0486 4.22064C12.6505 3.61879 12.6505 2.64299 12.0486 2.04114L10.9589 0.951389C10.357 0.349537 9.38121 0.349537 8.77936 0.951389L3.27078 6.45997C3.03499 6.69576 2.88203 7.00167 2.83488 7.33177L2.50795 9.62025C2.4353 10.1288 2.8712 10.5647 3.37975 10.492Z" stroke="#28303F" stroke-linecap="round"/>
</svg>
