<svg width="14" height="14" viewBox="0 0 14 14" fill="none" xmlns="http://www.w3.org/2000/svg">
<path d="M5.53061 7.98336L12.8639 0.650024M5.53061 7.98336L7.86394 12.65C7.89319 12.7139 7.94015 12.7679 7.99924 12.8059C8.05833 12.8438 8.12706 12.8639 8.19727 12.8639C8.26748 12.8639 8.33622 12.8438 8.39531 12.8059C8.4544 12.7679 8.50136 12.7139 8.53061 12.65L12.8639 0.650024M5.53061 7.98336L0.863938 5.65002C0.800111 5.62078 0.746023 5.57382 0.708103 5.51473C0.670182 5.45564 0.650024 5.3869 0.650024 5.31669C0.650024 5.24648 0.670182 5.17775 0.708103 5.11866C0.746023 5.05957 0.800111 5.01261 0.863938 4.98336L12.8639 0.650024" stroke="white" stroke-width="1.3" stroke-linecap="round" stroke-linejoin="round"/>
</svg>
