<svg width="10" height="13" viewBox="0 0 10 13" fill="none" xmlns="http://www.w3.org/2000/svg">
<path d="M0.650024 5.31666C0.650024 6.39963 1.08023 7.43824 1.84601 8.20401C2.61178 8.96979 3.65039 9.39999 4.73336 9.39999M4.73336 9.39999C5.81633 9.39999 6.85494 8.96979 7.62071 8.20401C8.38648 7.43824 8.81669 6.39963 8.81669 5.31666M4.73336 9.39999V11.7333M2.40002 11.7333H7.06669M2.98336 2.39999C2.98336 1.93587 3.16773 1.49075 3.49592 1.16256C3.82411 0.834368 4.26923 0.649994 4.73336 0.649994C5.19749 0.649994 5.64261 0.834368 5.9708 1.16256C6.29898 1.49075 6.48336 1.93587 6.48336 2.39999V5.31666C6.48336 5.78079 6.29898 6.22591 5.9708 6.5541C5.64261 6.88229 5.19749 7.06666 4.73336 7.06666C4.26923 7.06666 3.82411 6.88229 3.49592 6.5541C3.16773 6.22591 2.98336 5.78079 2.98336 5.31666V2.39999Z" stroke="#262626" stroke-width="1.3" stroke-linecap="round" stroke-linejoin="round"/>
</svg>
